<?xml version="1.0" encoding="UTF-8" standalone="no"?>
<svg
   xmlns:dc="http://purl.org/dc/elements/1.1/"
   xmlns:cc="http://creativecommons.org/ns#"
   xmlns:rdf="http://www.w3.org/1999/02/22-rdf-syntax-ns#"
   xmlns:svg="http://www.w3.org/2000/svg"
   xmlns="http://www.w3.org/2000/svg"
   xmlns:sodipodi="http://sodipodi.sourceforge.net/DTD/sodipodi-0.dtd"
   xmlns:inkscape="http://www.inkscape.org/namespaces/inkscape"
   enable-background="new 0 0 84.2 105.5"
   version="1.1"
   viewBox="0 0 84.2 105.5"
   xml:space="preserve"
   id="svg5505"
   sodipodi:docname="spreadsheet.svg"
   inkscape:version="0.92.0 r15299"><metadata
     id="metadata5511"><rdf:RDF><cc:Work
         rdf:about=""><dc:format>image/svg+xml</dc:format><dc:type
           rdf:resource="http://purl.org/dc/dcmitype/StillImage" /><dc:title></dc:title></cc:Work></rdf:RDF></metadata><defs
     id="defs5509" /><sodipodi:namedview
     pagecolor="#ffffff"
     bordercolor="#666666"
     borderopacity="1"
     objecttolerance="10"
     gridtolerance="10"
     guidetolerance="10"
     inkscape:pageopacity="0"
     inkscape:pageshadow="2"
     inkscape:window-width="966"
     inkscape:window-height="623"
     id="namedview5507"
     showgrid="false"
     inkscape:zoom="2.2369668"
     inkscape:cx="42.099998"
     inkscape:cy="52.75"
     inkscape:window-x="2445"
     inkscape:window-y="262"
     inkscape:window-maximized="0"
     inkscape:current-layer="svg5505" /><style
     type="text/css"
     id="style5495">
	.st0{fill:#BCBCBC;}
	.st1{fill:#D6D4D4;}
	.st2{fill:#FFFFFF;}
	.st3{opacity:0.72;fill:#9A9999;}
</style><path
     class="st0"
     d="m75.8 105.5h-67.4c-4.6 0-8.4-3.8-8.4-8.4v-88.7c0-4.6 3.8-8.4 8.4-8.4h51l24.8 24.4v72.7c0 4.6-3.8 8.4-8.4 8.4z"
     id="path5497" /><polygon
     class="st1"
     points="59.4 0 59.4 24.4 84.2 24.4"
     id="polygon5499" /><path
     class="st2"
     d="M12.4,33.7v45.2h59.4V33.7H12.4z M68.3,46.5H31.9v-9.3h36.3V46.5z M31.9,50.1h36.3v11.1H31.9V50.1z M28.4,61.2   H16V50.1h12.4V61.2z M28.4,37.2v9.3H16v-9.3H28.4z M16,64.7h12.4v10.6H16V64.7z M31.9,75.4V64.7h36.3v10.6H31.9z"
     id="path5501" /><polygon
     class="st3"
     points="84 24.4 59.6 24.4 84 56.3"
     id="polygon5503" /></svg>